name analog
datacolumns 19
datarows 49
range 0.343 0.367
endheader
time	ground_force_vx	ground_force_vy	ground_force_vz	ground_force_px	ground_force_py	ground_force_pz	l_ground_force_vx	l_ground_force_vy	l_ground_force_vz	l_ground_force_px	l_ground_force_py	l_ground_force_pz	ground_torque_x	ground_torque_y	ground_torque_z	l_ground_torque_x	l_ground_torque_y	l_ground_torque_z
0.343	-0.0	-0.0	-0.0	-20.78604888916016	-3.826112985610962	-823.8915405273438	-0.0	-0.0	-0.0	-35.0484619140625	16.342195510864258	75.83084869384766	-0.0	-0.0	-0.0	-0.0	-0.0	-0.0
0.3435	-0.0	-0.0	-0.0	-20.581684112548828	-3.667306423187256	-823.8917236328125	-0.0	-0.0	-0.0	-34.812156677246094	16.419353485107422	75.4547119140625	-0.0	-0.0	-0.0	-0.0	-0.0	-0.0
0.34400000000000003	-0.0	-0.0	-0.0	-18.45368003845215	-3.272055387496948	-822.7347412109375	-0.0	-0.0	-0.0	-34.81844711303711	16.18172836303711	75.25362396240234	-0.0	-0.0	-0.0	-0.0	-0.0	-0.0
0.34450000000000003	-0.0	-0.0	-0.0	-14.3879976272583	-1.0882433652877808	-826.9718627929688	-0.0	-0.0	-0.0	-35.13186264038086	16.194534301757812	74.42668151855469	-0.0	-0.0	-0.0	-0.0	-0.0	-0.0
0.34500000000000003	-0.0	-0.0	-0.0	-10.048837661743164	2.0883047580718994	-828.8627319335938	-0.0	-0.0	-0.0	-35.451927185058594	16.091875076293945	75.50421142578125	-0.0	-0.0	-0.0	-0.0	-0.0	-0.0
0.34550000000000003	-0.0	-0.0	-0.0	-7.894990921020508	4.30999231338501	-828.8619384765625	-0.0	-0.0	-0.0	-34.8118896484375	16.575010299682617	74.85121154785156	-0.0	-0.0	-0.0	-0.0	-0.0	-0.0
0.34600000000000003	-0.0	-0.0	-0.0	-9.290522575378418	5.552125930786133	-831.16064453125	-0.0	-0.0	-0.0	-34.81181335449219	16.135908126831055	76.45866394042969	-0.0	-0.0	-0.0	-0.0	-0.0	-0.0
0.34650000000000003	-0.0	-0.0	-0.0	-11.794620513916016	3.934281826019287	-830.02783203125	-0.0	-0.0	-0.0	-34.5743408203125	15.822193145751951	75.97581481933594	-0.0	-0.0	-0.0	-0.0	-0.0	-0.0
0.34700000000000003	-0.0	-0.0	-0.0	-13.354872703552246	3.3869552612304688	-828.4859619140625	-0.0	-0.0	-0.0	-34.56181335449219	15.78191089630127	75.17636108398438	-0.0	-0.0	-0.0	-0.0	-0.0	-0.0
0.34750000000000003	-0.0	-0.0	-0.0	-14.255043029785156	2.194995880126953	-824.6997680664062	-0.0	-0.0	-0.0	-35.06158828735352	15.924625396728516	75.85376739501953	-0.0	-0.0	-0.0	-0.0	-0.0	-0.0
0.34800000000000003	-0.0	-0.0	-0.0	-12.348101615905762	3.082545757293701	-823.6644897460938	-0.0	-0.0	-0.0	-34.817626953125	16.039108276367188	75.1276626586914	-0.0	-0.0	-0.0	-0.0	-0.0	-0.0
0.34850000000000003	-0.0	-0.0	-0.0	-12.387956619262695	2.8521728515625	-823.2380981445312	-0.0	-0.0	-0.0	-34.94791030883789	16.350053787231445	76.06135559082031	-0.0	-0.0	-0.0	-0.0	-0.0	-0.0
0.34900000000000003	-0.0	-0.0	-0.0	-13.00027561187744	3.476085662841797	-824.5299072265625	-0.0	-0.0	-0.0	-35.0556526184082	16.69795036315918	75.50204467773438	-0.0	-0.0	-0.0	-0.0	-0.0	-0.0
0.34950000000000003	-0.0	-0.0	-0.0	-13.827629089355469	4.326831340789795	-825.2611694335938	-0.0	-0.0	-0.0	-34.80533981323242	16.30862045288086	75.4547119140625	-0.0	-0.0	-0.0	-0.0	-0.0	-0.0
0.35000000000000003	-0.0	-0.0	-0.0	-14.898155212402344	5.045767784118652	-822.8373413085938	-0.0	-0.0	-0.0	-34.966312408447266	16.602319717407227	75.4781494140625	-0.0	-0.0	-0.0	-0.0	-0.0	-0.0
0.35050000000000003	-0.0	-0.0	-0.0	-16.319503784179688	7.498981952667236	-819.4489135742188	-0.0	-0.0	-0.0	-34.64418029785156	16.104564666748047	77.20947265625	-0.0	-0.0	-0.0	-0.0	-0.0	-0.0
0.35100000000000003	-0.0	-0.0	-0.0	-17.003833770751953	8.414115905761719	-817.3294677734375	-0.0	-0.0	-0.0	-35.0736198425293	16.104564666748047	76.06404113769531	-0.0	-0.0	-0.0	-0.0	-0.0	-0.0
0.35150000000000003	-0.0	-0.0	-0.0	-18.33568000793457	10.3986234664917	-817.446533203125	-0.0	-0.0	-0.0	-35.15718078613281	16.27859878540039	75.78262329101562	-0.0	-0.0	-0.0	-0.0	-0.0	-0.0
0.352	-0.0	-0.0	-0.0	-19.335010528564453	11.141300201416016	-817.2584228515625	-0.0	-0.0	-0.0	-35.05021286010742	16.171062469482422	76.43889617919922	-0.0	-0.0	-0.0	-0.0	-0.0	-0.0
0.3525	-0.0	-0.0	-0.0	-20.44096565246582	11.59282684326172	-817.4951782226562	-0.0	-0.0	-0.0	-34.97246551513672	16.307823181152344	75.56842041015625	-0.0	-0.0	-0.0	-0.0	-0.0	-0.0
0.353	-0.0	-0.0	-0.0	-20.607627868652344	11.189496994018556	-821.4502563476562	-0.0	-0.0	-0.0	-35.03309631347656	15.767898559570312	77.70764923095703	-0.0	-0.0	-0.0	-0.0	-0.0	-0.0
0.3535	-0.0	-0.0	-0.0	-20.57855224609375	9.988414764404297	-826.1799926757812	-0.0	-0.0	-0.0	-34.9839973449707	16.284503936767578	74.77529907226562	-0.0	-0.0	-0.0	-0.0	-0.0	-0.0
0.354	-0.0	-0.0	-0.0	-19.25791549682617	9.258017539978027	-827.1245727539062	-0.0	-0.0	-0.0	-34.73835754394531	16.374473571777344	76.74681854248047	-0.0	-0.0	-0.0	-0.0	-0.0	-0.0
0.3545	-0.0	-0.0	-0.0	-18.27093315124512	8.990699768066406	-828.2069091796875	-0.0	-0.0	-0.0	-35.168495178222656	15.851724624633787	74.66403198242188	-0.0	-0.0	-0.0	-0.0	-0.0	-0.0
0.355	-0.0	-0.0	-0.0	-17.441753387451172	9.280977249145508	-827.9668579101562	-0.0	-0.0	-0.0	-35.2297477722168	16.2001953125	74.35768127441406	-0.0	-0.0	-0.0	-0.0	-0.0	-0.0
0.3555	-0.0	-0.0	-0.0	-18.455224990844727	8.829580307006836	-829.66455078125	-0.0	-0.0	-0.0	-35.20749282836914	16.284503936767578	73.19548797607422	-0.0	-0.0	-0.0	-0.0	-0.0	-0.0
0.356	-0.0	-0.0	-0.0	-18.71165657043457	9.174798965454102	-828.9802856445312	-0.0	-0.0	-0.0	-34.564292907714844	16.048110961914062	75.103759765625	-0.0	-0.0	-0.0	-0.0	-0.0	-0.0
0.3565	-0.0	-0.0	-0.0	-18.678686141967773	9.019000053405762	-827.5006103515625	-0.0	-0.0	-0.0	-34.983795166015625	16.115690231323242	75.47640991210938	-0.0	-0.0	-0.0	-0.0	-0.0	-0.0
0.357	-0.0	-0.0	-0.0	-19.843774795532227	9.091300964355469	-825.7788696289062	-0.0	-0.0	-0.0	-34.83230972290039	16.27897834777832	75.8056640625	-0.0	-0.0	-0.0	-0.0	-0.0	-0.0
0.3575	-0.0	-0.0	-0.0	-21.811681747436523	8.918574333190918	-821.2091064453125	-0.0	-0.0	-0.0	-34.81571578979492	15.845629692077637	76.507568359375	-0.0	-0.0	-0.0	-0.0	-0.0	-0.0
0.358	-0.0	-0.0	-0.0	-24.4547061920166	9.069269180297852	-817.611572265625	-0.0	-0.0	-0.0	-34.59871292114258	16.46444320678711	76.73072814941406	-0.0	-0.0	-0.0	-0.0	-0.0	-0.0
0.3585	-0.0	-0.0	-0.0	-27.48231315612793	8.199996948242188	-816.7317504882812	-0.0	-0.0	-0.0	-34.72066879272461	16.126253128051758	77.10372161865234	-0.0	-0.0	-0.0	-0.0	-0.0	-0.0
0.359	-0.0	-0.0	-0.0	-29.55042839050293	8.645648956298828	-811.2973022460938	-0.0	-0.0	-0.0	-34.85668182373047	16.02536392211914	75.103759765625	-0.0	-0.0	-0.0	-0.0	-0.0	-0.0
0.3595	-0.0	-0.0	-0.0	-31.250732421875	8.567330360412598	-808.2360229492188	-0.0	-0.0	-0.0	-34.88347625732422	15.586174964904783	76.46577453613281	-0.0	-0.0	-0.0	-0.0	-0.0	-0.0
0.36	-0.0	-0.0	-0.0	-33.180938720703125	9.793607711791992	-806.2247314453125	-0.0	-0.0	-0.0	-34.97297286987305	16.04119110107422	76.1566162109375	-0.0	-0.0	-0.0	-0.0	-0.0	-0.0
0.3605	-0.0	-0.0	-0.0	-33.37540054321289	10.009257316589355	-802.8624267578125	-0.0	-0.0	-0.0	-35.40454864501953	16.146814346313477	76.48696899414062	-0.0	-0.0	-0.0	-0.0	-0.0	-0.0
0.361	-0.0	-0.0	-0.0	-33.35942077636719	11.004417419433594	-800.4739990234375	-0.0	-0.0	-0.0	-34.97826385498047	16.258222579956055	74.48387145996094	-0.0	-0.0	-0.0	-0.0	-0.0	-0.0
0.3615	-0.0	-0.0	-0.0	-33.3436393737793	9.50534439086914	-803.0059814453125	-0.0	-0.0	-0.0	-35.29977798461914	16.332727432250977	75.43435668945312	-0.0	-0.0	-0.0	-0.0	-0.0	-0.0
0.362	-0.0	-0.0	-0.0	-32.53565979003906	7.733422756195068	-804.1492309570312	-0.0	-0.0	-0.0	-34.988563537597656	15.76022720336914	75.49512481689453	-0.0	-0.0	-0.0	-0.0	-0.0	-0.0
0.3625	-0.0	-0.0	-0.0	-31.19768714904785	6.333452224731445	-808.0551147460938	-0.0	-0.0	-0.0	-34.64088439941406	16.12513542175293	74.87317657470703	-0.0	-0.0	-0.0	-0.0	-0.0	-0.0
0.363	-0.0	-0.0	-0.0	-28.264217376708984	4.629613876342773	-810.5889282226562	-0.0	-0.0	-0.0	-34.97826385498047	16.27427101135254	73.699951171875	-0.0	-0.0	-0.0	-0.0	-0.0	-0.0
0.3635	-0.0	-0.0	-0.0	-25.483402252197266	2.528360605239868	-813.5156860351562	-0.0	-0.0	-0.0	-35.1470832824707	16.369396209716797	77.48119354248047	-0.0	-0.0	-0.0	-0.0	-0.0	-0.0
0.364	-0.0	-0.0	-0.0	-23.05965805053711	0.2419335544109344	-817.0060424804688	-0.0	-0.0	-0.0	-34.97826385498047	16.174373626708984	76.46824645996094	-0.0	-0.0	-0.0	-0.0	-0.0	-0.0
0.3645	-0.0	-0.0	-0.0	-20.68669319152832	-1.6043472290039062	-821.4765014648438	-0.0	-0.0	-0.0	-34.7198600769043	16.359424591064453	76.19575500488281	-0.0	-0.0	-0.0	-0.0	-0.0	-0.0
0.365	-0.0	-0.0	-0.0	-18.912628173828125	-2.689003229141236	-820.6163940429688	-0.0	-0.0	-0.0	-34.70988464355469	15.844612121582031	75.47412872314453	-0.0	-0.0	-0.0	-0.0	-0.0	-0.0
0.3655	-0.0	-0.0	-0.0	-18.020523071289062	-3.441136598587036	-819.7899169921875	-0.0	-0.0	-0.0	-34.983177185058594	15.9345064163208	76.89706420898438	-0.0	-0.0	-0.0	-0.0	-0.0	-0.0
0.366	-0.0	-0.0	-0.0	-17.767820358276367	-2.6838552951812744	-817.9844360351562	-0.0	-0.0	-0.0	-35.13272476196289	15.949220657348633	74.12765502929688	-0.0	-0.0	-0.0	-0.0	-0.0	-0.0
0.3665	-0.0	-0.0	-0.0	-18.768775939941406	-1.1882989406585691	-814.0015258789062	-0.0	-0.0	-0.0	-35.64054489135742	15.859060287475586	76.46949005126953	-0.0	-0.0	-0.0	-0.0	-0.0	-0.0
0.367	-0.0	-0.0	-0.0	-21.49483299255371	0.6092239022254944	-810.48974609375	-0.0	-0.0	-0.0	-35.32646560668945	16.269975662231445	76.4131088256836	-0.0	-0.0	-0.0	-0.0	-0.0	-0.0
